<?xml version="1.0" standalone="no"?>
<!DOCTYPE svg PUBLIC "-//W3C//DTD SVG 20010904//EN"
 "http://www.w3.org/TR/2001/REC-SVG-20010904/DTD/svg10.dtd">
<svg version="1.0" xmlns="http://www.w3.org/2000/svg"
 width="225.000000pt" height="225.000000pt" viewBox="0 0 225.000000 225.000000"
 preserveAspectRatio="xMidYMid meet">
<metadata>
Created by potrace 1.14, written by Peter Selinger 2001-2017
</metadata>
<g transform="translate(0.000000,225.000000) scale(0.100000,-0.100000)"
fill="#000000" stroke="none">
<path d="M423 2092 c-12 -9 -27 -30 -32 -45 -15 -40 -15 -1802 0 -1845 22 -65
-11 -62 734 -62 745 0 712 -3 734 62 8 21 11 263 11 750 0 591 -2 724 -14 751
-8 18 -99 116 -203 220 l-189 187 -510 0 c-467 0 -511 -2 -531 -18z m987 -197
c0 -165 8 -203 49 -225 11 -6 89 -10 180 -10 l161 0 0 -365 0 -365 -675 0
-675 0 0 548 c0 413 3 551 12 560 9 9 129 12 480 12 l468 0 0 -155z m340 -167
c0 -9 -231 -11 -254 -2 -14 5 -16 27 -16 142 l0 137 135 -135 c74 -74 135
-138 135 -142z m50 -1186 c0 -234 -3 -321 -12 -330 -17 -17 -1309 -17 -1326 0
-9 9 -12 96 -12 330 l0 318 675 0 675 0 0 -318z"/>
<path d="M684 726 c-30 -23 -7 -50 44 -54 l42 -3 2 -177 3 -177 25 0 25 0 3
177 2 177 42 3 c51 4 74 31 44 54 -14 10 -48 14 -116 14 -68 0 -102 -4 -116
-14z"/>
<path d="M1334 726 c-30 -23 -7 -50 44 -54 l42 -3 2 -177 3 -177 25 0 25 0 3
177 2 177 42 3 c51 4 74 31 44 54 -14 10 -48 14 -116 14 -68 0 -102 -4 -116
-14z"/>
<path d="M1003 713 c-4 -11 10 -50 39 -105 l46 -87 -45 -86 c-47 -91 -51 -118
-16 -123 18 -3 29 10 60 66 l38 70 38 -70 c31 -57 42 -69 60 -66 35 5 31 32
-16 124 l-45 86 45 84 c48 91 52 119 14 119 -19 0 -31 -13 -59 -64 -27 -48
-38 -61 -44 -50 -5 8 -22 38 -39 67 -31 54 -63 69 -76 35z"/>
</g>
</svg>
